<?xml version="1.0" encoding="UTF-8"?>
<svg xmlns="http://www.w3.org/2000/svg" xmlns:xlink="http://www.w3.org/1999/xlink" width="100" height="100" viewBox="0 0 1024 1024" version="1.1">
    <path d="M928 704v62.08c0 85.76-65.472 156.096-148.608 161.6l-10.432 0.32H704v-64h64.96c49.408 0 90.24-38.976 94.656-88.96l0.384-8.96V704h64z m-768 0v63.232a97.28 97.28 0 0 0 89.28 96.384l8.96 0.384H320v64h-61.76a161.6 161.6 0 0 1-161.92-150.144l-0.32-10.624V704h64z m606.528-608c85.376 0 155.648 64.64 161.152 146.88l0.32 10.368V320h-64V253.248c0-48.256-38.4-88.32-88.064-92.8l-9.408-0.448H704v-64h62.528zM320 96v64H255.488a95.36 95.36 0 0 0-95.04 86.016l-0.448 9.152V320h-64V255.168a159.36 159.36 0 0 1 149.056-158.848l10.432-0.32H320z" fill="#FFFFFF"/>
    <path d="M640 640m-128 0a128 128 0 1 0 256 0 128 128 0 1 0-256 0Z" fill="#FFFFFF"/>
    <path d="M416 416m-96 0a96 96 0 1 0 192 0 96 96 0 1 0-192 0Z" fill="#FFFFFF"/>
    <path d="M320 704m-64 0a64 64 0 1 0 128 0 64 64 0 1 0-128 0Z" fill="#FFFFFF"/>
</svg>